<svg xmlns="http://www.w3.org/2000/svg" viewBox="0 0 32 32" fill="none">
  <defs>
    <linearGradient id="fg" x1="0" y1="0" x2="1" y2="1">
      <stop offset="0%" stop-color="#6b9e6b"/>
      <stop offset="100%" stop-color="#5a8a5a"/>
    </linearGradient>
  </defs>
  <rect width="32" height="32" rx="4" fill="#1e1e1e"/>
  <!-- Simplified cannabis leaf -->
  <g transform="translate(16, 16) scale(0.35)">
    <path d="M0 -12 L0 10" stroke="url(#fg)" stroke-width="3" stroke-linecap="round"/>
    <path d="M0 -6 Q-10 -4 -14 -6 Q-10 0 0 2 Z" fill="url(#fg)" opacity="0.9"/>
    <path d="M0 -6 Q10 -4 14 -6 Q10 0 0 2 Z" fill="url(#fg)" opacity="0.9"/>
    <path d="M0 0 Q-8 2 -12 6 Q-8 8 0 5 Z" fill="url(#fg)" opacity="0.85"/>
    <path d="M0 0 Q8 2 12 6 Q8 8 0 5 Z" fill="url(#fg)" opacity="0.85"/>
    <path d="M0 4 Q-6 8 -8 13 Q-4 12 0 8 Z" fill="url(#fg)" opacity="0.8"/>
    <path d="M0 4 Q6 8 8 13 Q4 12 0 8 Z" fill="url(#fg)" opacity="0.8"/>
  </g>
</svg>
