<svg xmlns="http://www.w3.org/2000/svg" viewBox="0 0 64 64" role="img" aria-label="The Ganja Club">
  <circle cx="32" cy="32" r="29.5" fill="none" stroke="#1F4A38" stroke-width="2"/>
  <g transform="translate(32,40.5)"><g fill="none" stroke="#1F4A38" stroke-linecap="round" stroke-linejoin="round">
    <path d="M0,0 L0.00,-2.08" stroke-width="1.15"/>
    <path d="M 0.00,-2.08 L 0.97,-3.43 L 2.91,-5.73 L 2.23,-6.38 L 3.71,-8.69 L 2.84,-9.34 L 3.93,-11.65 L 2.94,-12.30 L 3.68,-14.61 L 2.63,-15.26 L 3.10,-17.56 L 2.05,-18.22 L 2.30,-20.52 L 1.31,-21.17 L 1.42,-23.48 L 0.54,-24.13 Q 0.17,-26.29 0.00,-26.58 Q -0.17,-26.29 -0.54,-24.13 L -1.42,-23.48 L -1.31,-21.17 L -2.30,-20.52 L -2.05,-18.22 L -3.10,-17.56 L -2.63,-15.26 L -3.68,-14.61 L -2.94,-12.30 L -3.93,-11.65 L -2.84,-9.34 L -3.71,-8.69 L -2.23,-6.38 L -2.91,-5.73 L -0.97,-3.43 Z" stroke-width="1.55"/>
    <path d="M 0.00,-2.81 L 0.00,-25.72" stroke-width="1.15"/>
    <path d="M0,0 L-1.36,-2.10" stroke-width="1.15"/>
    <path d="M -1.36,-2.10 L -1.30,-3.51 L -0.98,-6.05 L -1.77,-6.19 L -1.78,-8.52 L -2.70,-8.58 L -2.99,-10.73 L -4.00,-10.75 L -4.54,-12.73 L -5.58,-12.71 L -6.31,-14.57 L -7.37,-14.54 L -8.26,-16.31 L -9.26,-16.32 L -10.25,-18.01 L -11.18,-18.06 Q -12.44,-19.44 -12.70,-19.56 Q -12.70,-19.27 -11.95,-17.56 L -12.28,-16.69 L -11.14,-15.10 L -11.54,-14.18 L -10.29,-12.65 L -10.74,-11.70 L -9.34,-10.27 L -9.79,-9.32 L -8.19,-8.02 L -8.59,-7.10 L -6.74,-5.96 L -7.06,-5.09 L -4.94,-4.14 L -5.13,-3.36 L -2.68,-2.61 Z" stroke-width="1.55"/>
    <path d="M -1.70,-2.62 L -12.31,-18.95" stroke-width="1.15"/>
    <path d="M0,0 L1.36,-2.10" stroke-width="1.15"/>
    <path d="M 1.36,-2.10 L 2.68,-2.61 L 5.13,-3.36 L 4.94,-4.14 L 7.06,-5.09 L 6.74,-5.96 L 8.59,-7.10 L 8.19,-8.02 L 9.79,-9.32 L 9.34,-10.27 L 10.74,-11.70 L 10.29,-12.65 L 11.54,-14.18 L 11.14,-15.10 L 12.28,-16.69 L 11.95,-17.56 Q 12.70,-19.27 12.70,-19.56 Q 12.44,-19.44 11.18,-18.06 L 10.25,-18.01 L 9.26,-16.32 L 8.26,-16.31 L 7.37,-14.54 L 6.31,-14.57 L 5.58,-12.71 L 4.54,-12.73 L 4.00,-10.75 L 2.99,-10.73 L 2.70,-8.58 L 1.78,-8.52 L 1.77,-6.19 L 0.98,-6.05 L 1.30,-3.51 Z" stroke-width="1.55"/>
    <path d="M 1.70,-2.62 L 12.31,-18.95" stroke-width="1.15"/>
    <path d="M0,0 L-2.66,-1.19" stroke-width="1.15"/>
    <path d="M -2.66,-1.19 L -3.17,-2.05 L -3.96,-3.67 L -4.48,-3.46 L -5.39,-4.83 L -5.96,-4.51 L -6.95,-5.68 L -7.55,-5.29 L -8.63,-6.26 L -9.25,-5.85 L -10.39,-6.66 L -11.01,-6.25 L -12.22,-6.95 L -12.81,-6.57 L -14.05,-7.19 L -14.62,-6.86 Q -15.89,-7.18 -16.09,-7.17 Q -15.97,-7.00 -14.88,-6.27 L -14.74,-5.63 L -13.45,-5.13 L -13.34,-4.43 L -12.01,-4.00 L -11.91,-3.27 L -10.53,-2.96 L -10.43,-2.23 L -8.98,-2.07 L -8.87,-1.36 L -7.34,-1.41 L -7.19,-0.77 L -5.57,-1.01 L -5.37,-0.49 L -3.64,-0.99 Z" stroke-width="1.55"/>
    <path d="M -3.07,-1.37 L -15.63,-6.96" stroke-width="1.15"/>
    <path d="M0,0 L2.66,-1.19" stroke-width="1.15"/>
    <path d="M 2.66,-1.19 L 3.64,-0.99 L 5.37,-0.49 L 5.57,-1.01 L 7.19,-0.77 L 7.34,-1.41 L 8.87,-1.36 L 8.98,-2.07 L 10.43,-2.23 L 10.53,-2.96 L 11.91,-3.27 L 12.01,-4.00 L 13.34,-4.43 L 13.45,-5.13 L 14.74,-5.63 L 14.88,-6.27 Q 15.97,-7.00 16.09,-7.17 Q 15.89,-7.18 14.62,-6.86 L 14.05,-7.19 L 12.81,-6.57 L 12.22,-6.95 L 11.01,-6.25 L 10.39,-6.66 L 9.25,-5.85 L 8.63,-6.26 L 7.55,-5.29 L 6.95,-5.68 L 5.96,-4.51 L 5.39,-4.83 L 4.48,-3.46 L 3.96,-3.67 L 3.17,-2.05 Z" stroke-width="1.55"/>
    <path d="M 3.07,-1.37 L 15.63,-6.96" stroke-width="1.15"/>
    <path d="M0,0 L-3.29,0.58" stroke-width="1.15"/>
    <path d="M -3.29,0.58 L -3.80,0.34 L -4.69,-0.18 L -4.86,0.09 L -5.73,-0.27 L -5.90,0.05 L -6.73,-0.17 L -6.89,0.20 L -7.71,0.09 L -7.86,0.47 L -8.66,0.46 L -8.82,0.84 L -9.60,0.90 L -9.76,1.26 L -10.55,1.37 L -10.71,1.71 Q -11.41,1.95 -11.50,2.03 Q -11.39,2.07 -10.65,2.06 L -10.38,2.32 L -9.61,2.15 L -9.33,2.44 L -8.58,2.22 L -8.29,2.53 L -7.55,2.25 L -7.27,2.55 L -6.54,2.17 L -6.26,2.46 L -5.56,1.97 L -5.29,2.21 L -4.60,1.58 L -4.34,1.77 L -3.69,0.99 Z" stroke-width="1.55"/>
    <path d="M -3.54,0.62 L -11.21,1.98" stroke-width="1.15"/>
    <path d="M0,0 L3.29,0.58" stroke-width="1.15"/>
    <path d="M 3.29,0.58 L 3.69,0.99 L 4.34,1.77 L 4.60,1.58 L 5.29,2.21 L 5.56,1.97 L 6.26,2.46 L 6.54,2.17 L 7.27,2.55 L 7.55,2.25 L 8.29,2.53 L 8.58,2.22 L 9.33,2.44 L 9.61,2.15 L 10.38,2.32 L 10.65,2.06 Q 11.39,2.07 11.50,2.03 Q 11.41,1.95 10.71,1.71 L 10.55,1.37 L 9.76,1.26 L 9.60,0.90 L 8.82,0.84 L 8.66,0.46 L 7.86,0.47 L 7.71,0.09 L 6.89,0.20 L 6.73,-0.17 L 5.90,0.05 L 5.73,-0.27 L 4.86,0.09 L 4.69,-0.18 L 3.80,0.34 Z" stroke-width="1.55"/>
    <path d="M 3.54,0.62 L 11.21,1.98" stroke-width="1.15"/>
    <path d="M0,0 Q0.49,3.50 -0.37,6.37" stroke-width="1.15"/>
  </g></g>
</svg>