<svg xmlns="http://www.w3.org/2000/svg" viewBox="0 0 32 24" role="img" aria-label="" color="#1F4A38">
  <g transform="translate(16,15.5)"><g fill="none" stroke="currentColor" stroke-linecap="round" stroke-linejoin="round">
    <path d="M 0.00,-1.60 L 0.42,-2.05 L 1.27,-2.95 L 1.02,-3.21 L 1.61,-4.11 L 1.25,-4.36 L 1.64,-5.26 L 1.21,-5.52 L 1.42,-6.42 L 0.97,-6.67 L 1.06,-7.57 L 0.62,-7.83 L 0.62,-8.73 L 0.23,-8.98 Q 0.07,-9.70 0.00,-9.80 Q -0.07,-9.70 -0.23,-8.98 L -0.62,-8.73 L -0.62,-7.83 L -1.06,-7.57 L -0.97,-6.67 L -1.42,-6.42 L -1.21,-5.52 L -1.64,-5.26 L -1.25,-4.36 L -1.61,-4.11 L -1.02,-3.21 L -1.27,-2.95 L -0.42,-2.05 Z" stroke-width="1.0"/>
    <path d="M 0.00,-1.85 L 0.00,-9.51" stroke-width="0.7"/>
    <path d="M -1.52,-0.49 L -1.96,-1.28 L -2.83,-2.87 L -3.30,-2.64 L -4.28,-3.87 L -4.80,-3.48 L -5.88,-4.43 L -6.42,-3.95 L -7.58,-4.65 L -8.14,-4.14 L -9.36,-4.66 L -9.91,-4.17 L -11.16,-4.58 L -11.69,-4.16 Q -12.77,-4.26 -12.93,-4.20 Q -12.84,-4.05 -11.90,-3.51 L -11.72,-2.85 L -10.46,-2.45 L -10.31,-1.73 L -9.02,-1.44 L -8.87,-0.69 L -7.52,-0.58 L -7.36,0.13 L -5.93,-0.00 L -5.74,0.62 L -4.22,0.20 L -3.98,0.65 L -2.34,-0.12 Z" stroke-width="1.0"/>
    <path d="M -1.86,-0.61 L -12.53,-4.07" stroke-width="0.7"/>
    <path d="M 1.52,-0.49 L 2.34,-0.12 L 3.98,0.65 L 4.22,0.20 L 5.74,0.62 L 5.93,-0.00 L 7.36,0.13 L 7.52,-0.58 L 8.87,-0.69 L 9.02,-1.44 L 10.31,-1.73 L 10.46,-2.45 L 11.72,-2.85 L 11.90,-3.51 Q 12.84,-4.05 12.93,-4.20 Q 12.77,-4.26 11.69,-4.16 L 11.16,-4.58 L 9.91,-4.17 L 9.36,-4.66 L 8.14,-4.14 L 7.58,-4.65 L 6.42,-3.95 L 5.88,-4.43 L 4.80,-3.48 L 4.28,-3.87 L 3.30,-2.64 L 2.83,-2.87 L 1.96,-1.28 Z" stroke-width="1.0"/>
    <path d="M 1.86,-0.61 L 12.53,-4.07" stroke-width="0.7"/>
    <path d="M0,0 L0,3.4" stroke-width="0.7"/>
  </g></g>
</svg>