<svg xmlns="http://www.w3.org/2000/svg" viewBox="0 0 64 64" role="img" aria-label="The Ganja Club">
  <circle cx="32" cy="32" r="32" fill="#0A1D16"/>
  <circle cx="32" cy="32" r="27.5" fill="none" stroke="#D8BC7E" stroke-width="1"/>
  <circle cx="32" cy="32" r="25" fill="none" stroke="#D8BC7E" stroke-width="0.45" opacity="0.7"/>
  <g transform="translate(32,40)"><g fill="none" stroke="#D8BC7E" stroke-linecap="round" stroke-linejoin="round">
    <path d="M0,0 L0.00,-1.96" stroke-width="0.7"/>
    <path d="M 0.00,-1.96 L 0.91,-3.21 L 2.51,-4.73 L 1.81,-5.17 L 3.18,-6.67 L 2.39,-7.11 L 3.56,-8.62 L 2.70,-9.05 L 3.67,-10.56 L 2.77,-10.99 L 3.58,-12.51 L 2.66,-12.94 L 3.30,-14.46 L 2.38,-14.88 L 2.88,-16.39 L 1.99,-16.82 L 2.37,-18.34 L 1.52,-18.77 L 1.80,-20.28 L 1.01,-20.72 L 1.22,-22.23 L 0.50,-22.66 Q 0.16,-24.67 0.00,-24.95 Q -0.16,-24.67 -0.50,-22.66 L -1.22,-22.23 L -1.01,-20.72 L -1.80,-20.28 L -1.52,-18.77 L -2.37,-18.34 L -1.99,-16.82 L -2.88,-16.39 L -2.38,-14.88 L -3.30,-14.46 L -2.66,-12.94 L -3.58,-12.51 L -2.77,-10.99 L -3.67,-10.56 L -2.70,-9.05 L -3.56,-8.62 L -2.39,-7.11 L -3.18,-6.67 L -1.81,-5.17 L -2.51,-4.73 L -0.91,-3.21 Z" stroke-width="1.05"/>
    <path d="M 0.00,-2.65 L 0.00,-24.16" stroke-width="0.7"/>
    <path d="M 0.00,-6.54 Q 1.33,-7.67 3.16,-10.29" stroke-width="0.56" opacity="0.75"/>
    <path d="M 0.00,-6.54 Q -1.33,-7.67 -3.16,-10.29" stroke-width="0.56" opacity="0.75"/>
    <path d="M 0.00,-12.37 Q 1.04,-13.49 2.48,-16.12" stroke-width="0.56" opacity="0.75"/>
    <path d="M 0.00,-12.37 Q -1.04,-13.49 -2.48,-16.12" stroke-width="0.56" opacity="0.75"/>
    <path d="M0,0 L-1.28,-1.97" stroke-width="0.7"/>
    <path d="M -1.28,-1.97 L -1.22,-3.29 L -0.77,-5.11 L -1.47,-5.10 L -1.20,-6.81 L -1.96,-6.75 L -1.83,-8.37 L -2.64,-8.27 L -2.65,-9.81 L -3.48,-9.69 L -3.61,-11.15 L -4.47,-11.03 L -4.71,-12.40 L -5.57,-12.28 L -5.91,-13.60 L -6.74,-13.49 L -7.17,-14.75 L -7.98,-14.65 L -8.48,-15.87 L -9.24,-15.80 L -9.79,-16.98 L -10.50,-16.96 Q -11.68,-18.25 -11.93,-18.36 Q -11.92,-18.09 -11.22,-16.49 L -11.53,-15.85 L -10.68,-14.87 L -11.05,-14.20 L -10.14,-13.25 L -10.56,-12.55 L -9.58,-11.65 L -10.02,-10.93 L -8.96,-10.08 L -9.41,-9.35 L -8.26,-8.57 L -8.71,-7.83 L -7.44,-7.12 L -7.88,-6.41 L -6.48,-5.78 L -6.90,-5.08 L -5.37,-4.54 L -5.73,-3.87 L -4.06,-3.42 L -4.36,-2.78 L -2.51,-2.45 Z" stroke-width="1.05"/>
    <path d="M -1.60,-2.46 L -11.56,-17.79" stroke-width="0.7"/>
    <path d="M -3.40,-5.23 Q -2.97,-6.65 -2.88,-9.38" stroke-width="0.56" opacity="0.75"/>
    <path d="M -3.40,-5.23 Q -4.87,-5.42 -7.40,-6.45" stroke-width="0.56" opacity="0.75"/>
    <path d="M -6.10,-9.39 Q -5.87,-10.68 -6.07,-13.21" stroke-width="0.56" opacity="0.75"/>
    <path d="M -6.10,-9.39 Q -7.37,-9.71 -9.60,-10.92" stroke-width="0.56" opacity="0.75"/>
    <path d="M0,0 L1.28,-1.97" stroke-width="0.7"/>
    <path d="M 1.28,-1.97 L 2.51,-2.45 L 4.36,-2.78 L 4.06,-3.42 L 5.73,-3.87 L 5.37,-4.54 L 6.90,-5.08 L 6.48,-5.78 L 7.88,-6.41 L 7.44,-7.12 L 8.71,-7.83 L 8.26,-8.57 L 9.41,-9.35 L 8.96,-10.08 L 10.02,-10.93 L 9.58,-11.65 L 10.56,-12.55 L 10.14,-13.25 L 11.05,-14.20 L 10.68,-14.87 L 11.53,-15.85 L 11.22,-16.49 Q 11.92,-18.09 11.93,-18.36 Q 11.68,-18.25 10.50,-16.96 L 9.79,-16.98 L 9.24,-15.80 L 8.48,-15.87 L 7.98,-14.65 L 7.17,-14.75 L 6.74,-13.49 L 5.91,-13.60 L 5.57,-12.28 L 4.71,-12.40 L 4.47,-11.03 L 3.61,-11.15 L 3.48,-9.69 L 2.65,-9.81 L 2.64,-8.27 L 1.83,-8.37 L 1.96,-6.75 L 1.20,-6.81 L 1.47,-5.10 L 0.77,-5.11 L 1.22,-3.29 Z" stroke-width="1.05"/>
    <path d="M 1.60,-2.46 L 11.56,-17.79" stroke-width="0.7"/>
    <path d="M 3.40,-5.23 Q 4.87,-5.42 7.40,-6.45" stroke-width="0.56" opacity="0.75"/>
    <path d="M 3.40,-5.23 Q 2.97,-6.65 2.88,-9.38" stroke-width="0.56" opacity="0.75"/>
    <path d="M 6.10,-9.39 Q 7.37,-9.71 9.60,-10.92" stroke-width="0.56" opacity="0.75"/>
    <path d="M 6.10,-9.39 Q 5.87,-10.68 6.07,-13.21" stroke-width="0.56" opacity="0.75"/>
    <path d="M0,0 L-2.50,-1.11" stroke-width="0.7"/>
    <path d="M -2.50,-1.11 L -2.97,-1.93 L -3.41,-3.17 L -3.82,-2.89 L -4.31,-4.01 L -4.74,-3.68 L -5.29,-4.69 L -5.73,-4.33 L -6.33,-5.23 L -6.78,-4.83 L -7.41,-5.65 L -7.87,-5.25 L -8.55,-5.97 L -9.01,-5.58 L -9.72,-6.22 L -10.17,-5.83 L -10.90,-6.41 L -11.35,-6.05 L -12.11,-6.57 L -12.53,-6.25 L -13.31,-6.73 L -13.73,-6.44 Q -14.91,-6.75 -15.11,-6.73 Q -14.99,-6.57 -13.97,-5.89 L -13.91,-5.39 L -13.03,-5.13 L -12.99,-4.60 L -12.09,-4.39 L -12.06,-3.81 L -11.13,-3.65 L -11.12,-3.06 L -10.17,-2.96 L -10.16,-2.36 L -9.17,-2.34 L -9.16,-1.72 L -8.13,-1.80 L -8.12,-1.21 L -7.05,-1.37 L -7.02,-0.79 L -5.91,-1.06 L -5.86,-0.52 L -4.71,-0.90 L -4.64,-0.41 L -3.42,-0.92 Z" stroke-width="1.05"/>
    <path d="M -2.88,-1.28 L -14.67,-6.53" stroke-width="0.7"/>
    <path d="M -5.01,-2.23 Q -5.30,-3.24 -6.30,-4.88" stroke-width="0.56" opacity="0.75"/>
    <path d="M -5.01,-2.23 Q -5.95,-1.77 -7.84,-1.41" stroke-width="0.56" opacity="0.75"/>
    <path d="M -8.21,-3.66 Q -8.57,-4.49 -9.66,-5.93" stroke-width="0.56" opacity="0.75"/>
    <path d="M -8.21,-3.66 Q -9.07,-3.36 -10.87,-3.21" stroke-width="0.56" opacity="0.75"/>
    <path d="M0,0 L2.50,-1.11" stroke-width="0.7"/>
    <path d="M 2.50,-1.11 L 3.42,-0.92 L 4.64,-0.41 L 4.71,-0.90 L 5.86,-0.52 L 5.91,-1.06 L 7.02,-0.79 L 7.05,-1.37 L 8.12,-1.21 L 8.13,-1.80 L 9.16,-1.72 L 9.17,-2.34 L 10.16,-2.36 L 10.17,-2.96 L 11.12,-3.06 L 11.13,-3.65 L 12.06,-3.81 L 12.09,-4.39 L 12.99,-4.60 L 13.03,-5.13 L 13.91,-5.39 L 13.97,-5.89 Q 14.99,-6.57 15.11,-6.73 Q 14.91,-6.75 13.73,-6.44 L 13.31,-6.73 L 12.53,-6.25 L 12.11,-6.57 L 11.35,-6.05 L 10.90,-6.41 L 10.17,-5.83 L 9.72,-6.22 L 9.01,-5.58 L 8.55,-5.97 L 7.87,-5.25 L 7.41,-5.65 L 6.78,-4.83 L 6.33,-5.23 L 5.73,-4.33 L 5.29,-4.69 L 4.74,-3.68 L 4.31,-4.01 L 3.82,-2.89 L 3.41,-3.17 L 2.97,-1.93 Z" stroke-width="1.05"/>
    <path d="M 2.88,-1.28 L 14.67,-6.53" stroke-width="0.7"/>
    <path d="M 5.01,-2.23 Q 5.95,-1.77 7.84,-1.41" stroke-width="0.56" opacity="0.75"/>
    <path d="M 5.01,-2.23 Q 5.30,-3.24 6.30,-4.88" stroke-width="0.56" opacity="0.75"/>
    <path d="M 8.21,-3.66 Q 9.07,-3.36 10.87,-3.21" stroke-width="0.56" opacity="0.75"/>
    <path d="M 8.21,-3.66 Q 8.57,-4.49 9.66,-5.93" stroke-width="0.56" opacity="0.75"/>
    <path d="M0,0 L-3.09,0.55" stroke-width="0.7"/>
    <path d="M -3.09,0.55 L -3.57,0.31 L -4.18,-0.13 L -4.27,0.12 L -4.87,-0.24 L -4.96,0.05 L -5.54,-0.25 L -5.63,0.06 L -6.20,-0.18 L -6.28,0.15 L -6.84,-0.03 L -6.92,0.31 L -7.47,0.18 L -7.56,0.51 L -8.10,0.43 L -8.19,0.75 L -8.72,0.71 L -8.82,1.03 L -9.33,1.03 L -9.43,1.32 L -9.95,1.34 L -10.06,1.60 Q -10.71,1.84 -10.79,1.90 Q -10.70,1.94 -10.00,1.94 L -9.81,2.15 L -9.32,1.99 L -9.12,2.23 L -8.64,2.05 L -8.44,2.31 L -7.96,2.09 L -7.76,2.36 L -7.28,2.11 L -7.08,2.39 L -6.61,2.08 L -6.42,2.37 L -5.95,2.00 L -5.76,2.29 L -5.31,1.87 L -5.12,2.13 L -4.68,1.65 L -4.49,1.89 L -4.06,1.35 L -3.88,1.55 L -3.46,0.93 Z" stroke-width="1.05"/>
    <path d="M -3.32,0.59 L -10.53,1.86" stroke-width="0.7"/>
    <path d="M -4.63,0.82 Q -5.08,0.44 -6.07,-0.02" stroke-width="0.56" opacity="0.75"/>
    <path d="M -4.63,0.82 Q -4.93,1.33 -5.69,2.09" stroke-width="0.56" opacity="0.75"/>
    <path d="M -6.58,1.16 Q -7.01,0.88 -7.99,0.56" stroke-width="0.56" opacity="0.75"/>
    <path d="M -6.58,1.16 Q -6.89,1.57 -7.69,2.21" stroke-width="0.56" opacity="0.75"/>
    <path d="M0,0 L3.09,0.55" stroke-width="0.7"/>
    <path d="M 3.09,0.55 L 3.46,0.93 L 3.88,1.55 L 4.06,1.35 L 4.49,1.89 L 4.68,1.65 L 5.12,2.13 L 5.31,1.87 L 5.76,2.29 L 5.95,2.00 L 6.42,2.37 L 6.61,2.08 L 7.08,2.39 L 7.28,2.11 L 7.76,2.36 L 7.96,2.09 L 8.44,2.31 L 8.64,2.05 L 9.12,2.23 L 9.32,1.99 L 9.81,2.15 L 10.00,1.94 Q 10.70,1.94 10.79,1.90 Q 10.71,1.84 10.06,1.60 L 9.95,1.34 L 9.43,1.32 L 9.33,1.03 L 8.82,1.03 L 8.72,0.71 L 8.19,0.75 L 8.10,0.43 L 7.56,0.51 L 7.47,0.18 L 6.92,0.31 L 6.84,-0.03 L 6.28,0.15 L 6.20,-0.18 L 5.63,0.06 L 5.54,-0.25 L 4.96,0.05 L 4.87,-0.24 L 4.27,0.12 L 4.18,-0.13 L 3.57,0.31 Z" stroke-width="1.05"/>
    <path d="M 3.32,0.59 L 10.53,1.86" stroke-width="0.7"/>
    <path d="M 4.63,0.82 Q 4.93,1.33 5.69,2.09" stroke-width="0.56" opacity="0.75"/>
    <path d="M 4.63,0.82 Q 5.08,0.44 6.07,-0.02" stroke-width="0.56" opacity="0.75"/>
    <path d="M 6.58,1.16 Q 6.89,1.57 7.69,2.21" stroke-width="0.56" opacity="0.75"/>
    <path d="M 6.58,1.16 Q 7.01,0.88 7.99,0.56" stroke-width="0.56" opacity="0.75"/>
    <path d="M0,0 Q0.46,3.29 -0.34,5.98" stroke-width="0.7"/>
  </g></g>
</svg>